<?xml version="1.0" encoding="UTF-8"?>
<!DOCTYPE svg PUBLIC "-//W3C//DTD SVG 1.1//EN" "http://www.w3.org/Graphics/SVG/1.1/DTD/svg11.dtd">
<!-- Creator: CorelDRAW X5 -->
<svg xmlns="http://www.w3.org/2000/svg" xml:space="preserve" width="210mm" height="80.88mm" style="shape-rendering:geometricPrecision; text-rendering:geometricPrecision; image-rendering:optimizeQuality; fill-rule:evenodd; clip-rule:evenodd"
viewBox="0 0 21000 8088"
 xmlns:xlink="http://www.w3.org/1999/xlink">
 <defs>
  <style type="text/css">
   <![CDATA[
    .fil0 {fill:#009C3D;fill-rule:nonzero}
   ]]>
  </style>
 </defs>
 <g id="__x0023_Layer_x0020_1">
  <metadata id="CorelCorpID_0Corel-Layer"/>
  <path class="fil0" d="M12061 3668l0 -640 131 0 0 550c-36,18 -86,52 -131,90zm-228 193l0 0c40,-48 82,-97 131,-139l0 -694 -131 0 0 833zm-1521 509l0 0c0,171 68,333 192,457 124,123 286,192 457,192 72,0 147,-16 200,-41l0 -131c-61,26 -136,41 -200,41 -280,0 -517,-237 -517,-517l0 -118c0,-280 237,-517 517,-517 139,0 270,53 367,150 97,97 150,227 150,367l0 767 131 0 0 -792c-8,-167 -80,-324 -201,-441 -122,-118 -281,-182 -447,-182 -171,0 -333,68 -457,192 -124,124 -192,286 -192,457l0 118zm1965 -314l0 0c59,-59 137,-93 212,-93 162,0 289,127 289,289l0 118c0,162 -127,289 -289,289 -78,0 -154,-43 -214,-121 -53,-69 -87,-162 -92,-246l-106 130c21,99 73,195 146,261 76,69 170,107 266,107 232,0 421,-189 421,-420l0 -118c0,-110 -45,-215 -125,-295 -81,-81 -186,-125 -295,-125 -69,0 -180,25 -311,143l0 0c-35,35 -118,118 -168,177 -85,92 -207,231 -312,371l0 205c116,-149 183,-233 292,-359 98,-114 219,-253 287,-313zm-3101 -248l0 0 0 -155c-119,-64 -248,-92 -420,-92 -175,0 -342,64 -469,181 -127,117 -197,271 -197,434l0 42c0,339 272,615 606,615 272,0 384,-89 412,-117l0 -394 -444 0 0 131 321 0 0 198 -1 0c-41,16 -127,51 -288,51 -128,0 -247,-50 -336,-140 -90,-91 -139,-212 -139,-343l0 -42c0,-262 245,-483 534,-483 200,0 319,33 420,116zm957 154l0 0c50,0 92,8 126,25 16,-41 33,-74 58,-115 -36,-26 -121,-41 -183,-41 -240,0 -420,181 -420,421l0 767 131 0 0 -767c0,-170 119,-289 289,-289zm-2271 213l0 0 0 42c0,228 86,440 243,598 157,158 367,244 591,244 180,0 340,-41 475,-121 111,-66 161,-133 165,-139l0 -707 -672 0 0 131 541 0 0 535 -1 1c-63,63 -214,170 -508,170 -192,0 -370,-73 -501,-206 -131,-133 -202,-312 -202,-505l0 -42c0,-182 82,-364 225,-499 146,-137 337,-213 537,-213 186,0 316,28 420,91l0 -148c-108,-46 -238,-67 -420,-67 -484,0 -894,382 -894,834zm3519 843l0 0 0 -767c0,-236 -185,-421 -421,-421 -110,0 -215,44 -295,125 -81,81 -125,186 -125,295l0 118c0,228 193,420 420,420 63,0 148,-15 200,-58l0 -139c-51,41 -125,66 -200,66 -162,0 -289,-127 -289,-289l0 -118c0,-162 127,-289 289,-289 162,0 289,127 289,289l0 767 131 0zm-1248 -1284l0 0c89,0 166,19 236,59 33,-41 66,-74 90,-99 -74,-56 -199,-91 -327,-91 -182,0 -348,66 -466,185 -117,119 -182,283 -182,463l0 767 131 0 0 -767c0,-304 213,-517 517,-517zm2814 60l0 0c-124,-124 -286,-192 -457,-192 -125,0 -251,47 -320,93 -143,95 -261,199 -472,472l0 196c180,-234 349,-418 478,-520 85,-68 205,-110 314,-110 280,0 517,237 517,517l0 118c0,138 -54,269 -154,367 -98,97 -227,150 -364,150 -230,0 -433,-158 -488,-374l-93 112c67,226 312,393 581,393 171,0 333,-68 457,-192 124,-124 192,-286 192,-457l0 -118c0,-171 -68,-333 -192,-457z"/>
 </g>
</svg>
