<?xml version="1.0" encoding="UTF-8"?>
<!DOCTYPE svg PUBLIC "-//W3C//DTD SVG 1.1//EN" "http://www.w3.org/Graphics/SVG/1.1/DTD/svg11.dtd">
<!-- Creator: CorelDRAW 2019 (64-Bit) -->
<svg xmlns="http://www.w3.org/2000/svg" xml:space="preserve" width="907px" height="240px" version="1.1" style="shape-rendering:geometricPrecision; text-rendering:geometricPrecision; image-rendering:optimizeQuality; fill-rule:evenodd; clip-rule:evenodd"
viewBox="0 0 907 239.96"
 xmlns:xlink="http://www.w3.org/1999/xlink"
 xmlns:xodm="http://www.corel.com/coreldraw/odm/2003">
 <defs>
  <style type="text/css">
   <![CDATA[
    .fil1 {fill:#FEFEFE}
    .fil0 {fill:#D71D48}
   ]]>
  </style>
 </defs>
 <g id="Layer_x0020_1">
  <metadata id="CorelCorpID_0Corel-Layer"/>
  <g id="_2423617124192">
   <path class="fil0" d="M877.45 208.69c-2.93,17.01 -14,31.27 -31.27,31.27l-791.36 0c-15.78,0 -28.76,-12.02 -30.27,-27.41l-23.94 -144.95c-3.42,-20.77 7.64,-39.91 30.42,-39.91l844.09 -27.67c18.75,-0.62 35.1,18.17 31.34,40.01l-29.01 168.66z"/>
   <path id="Logo_x0020_BukaLapak_x0020__x0028_CDR-2019_x0029__x0020_-_x0020_FileVector69.cdr" class="fil1" d="M750.17 164.19l-0.01 5.37 -4.12 -0.63 -1.59 -0.3 -0.64 -0.3 -0.32 -0.29 -0.31 -0.89 -0.32 -42.07c-2,-22.32 -14.78,-29.93 -38.46,-29.93 -12.28,0.82 -24.77,1.9 -36.87,4.15 -0.09,0.05 0.32,17.65 0.32,24.3l0.96 0c10.48,-1.22 20.91,-1.76 31.46,-2.37 10.27,0 13.98,-0.65 13.98,8.29 -7.07,0.6 -14.28,0.69 -21.29,1.78 -17.7,2.06 -31.01,7.83 -32.74,28.74l0 4.15c0.59,7.66 3.64,20.06 12.08,24l102.02 0 4.45 -0.3 0 -30.81 4.14 0 20.33 30.81 0.32 0.3 32.1 0 -27.96 -45.04 0 -0.29 30.82 -44.45 -32.41 0 -23.84 32 -0.32 0.3 -3.18 0.29 0 -64.58 -28.28 0 -0.32 97.77zm-573.93 -27.28c0.21,20.33 12.53,38.51 32.03,40.01l4.13 0c14.33,-0.93 34.47,-9.12 47.26,-15.28l0.32 -0.31 0 -83.76 -28.23 0 -0.32 70c-7.19,2.31 -23.4,7.94 -26.01,-2.14 -0.47,-2.27 -0.75,-4.41 -0.95,-6.73 -0.71,-20.36 -0.32,-40.76 -0.32,-61.13l-28.55 0 0.64 59.34zm-105.2 51.21l55.98 0 4.11 -0.3 3.48 -0.3c21,-2.81 34.08,-18.1 35.49,-37.87l0 -3.85c-0.94,-12.36 -5.44,-17.59 -13.41,-25.06l0.31 -0.29c3.82,-2.44 8.01,-11.93 7.34,-15.88l0 -8c-2.02,-18.95 -16.97,-27.64 -38.27,-29.63l-55.03 0 0 121.18zm56.93 -74.07l-1.9 0.29 -2.53 0.3 -24.35 0.3 0 -23.71 24.67 0.3c6.21,0.73 9.37,1.17 11.38,6.81l0 7.12c-1.19,4.47 -2.14,7.38 -7.27,8.59zm0.63 48.88l-3.79 0.3 -25.62 0.3 0 -24.3 12.02 0 13.28 0 3.16 0.3c7.1,1.11 9.9,3.46 11.07,10.07l0 2.07c-0.96,6.28 -2.79,10.12 -10.12,11.26zm312.37 25.19l80.24 0 0 -16c6.28,0 13.44,-2.61 19.35,-4.45l0.32 0 0.32 0.3c3.26,3.05 13.05,4.33 17.44,4.74l10.47 0 0 15.41 28.23 0 0.01 -28.79 2.84 0.64 4.44 0.3 12.37 0c23.12,-1.8 36.08,-14.36 38.38,-35.85l0.32 -2.67 0 -16.29 -0.32 -2.67c-2.1,-19.62 -9.23,-32.5 -30.77,-35.85l-13.64 0c-13.97,1.86 -27.89,4.06 -41.86,5.92l-0.32 75.85c-1.84,-0.16 -4.65,0.1 -6.02,-1.18l-0.32 -0.3 -0.32 -40.59 -0.32 -3.85c-1.79,-16.78 -10.32,-25.11 -27.91,-27.85l-4.44 -0.3 -6.98 0 -6.02 0.3c-10.58,1.1 -21.27,1.9 -31.72,3.85l0 24 1.9 0c10.91,-0.64 21.75,-1.63 32.67,-2.08l8.88 0c3.2,0.6 4.43,1.72 5.08,4.75l0 3.55c-7.5,0.7 -15.02,1.14 -22.52,1.78 -16.94,1.98 -27.41,8.29 -30.77,24l-0.32 2.66 0 8 0.32 2.97c1.5,7.02 3.83,12.46 9.2,17.48l0.32 0.29 -19.67 0.3 0 -99.55 -0.32 -0.3 -28.54 0c-0.11,28.51 -0.07,57.54 -0.03,85.98 -2.64,-0.19 -6.04,0.3 -6.06,-2.85l-0.31 -39.5 -0.32 -5.04c-2.38,-15.57 -11.16,-24.13 -27.91,-26.37 -4.89,-0.45 -9.7,-0.32 -14.59,0 -9.82,0.57 -19.79,1.45 -29.5,2.96l-0.63 0.3 -0.32 0.3c-2.28,6.39 -5.33,12.57 -7.61,18.96l0 0.89 -26.96 0 -24.42 32.51 -3.18 0.08 0 -68.44 -27.91 0 0 121.17 27.91 0 0 -26.66 2.87 0 19.02 26.37 0.32 0.29 32.03 0 0 -0.88 -0.32 -0.3 -24.74 -39.4 0 -0.6 26.96 -38.22 0.32 -0.29 0.64 -0.3c14.4,-2.69 29.82,-2.96 44.4,-2.96 3.33,0.78 4.24,1.63 5.08,4.74l0.31 3.85c-8.81,0 -17.91,0.91 -26.64,2.07l-1.27 0.3c-13.33,2.07 -22.68,9.07 -25.37,21.63l-0.32 1.18 -0.32 2.97c0,5.16 -0.43,12.81 2.22,17.77 3.19,8.94 10.58,14.84 20.62,17.19l2.22 0.29 12.37 0c8.12,-0.76 15.09,-2.93 22.84,-4.74l1.27 0 0.31 0.3 0.32 0.29c4.37,2.05 8.19,2.96 13,3.86l3.18 0.29 10.51 0c0.01,3.85 0.01,7.68 0.01,11.49zm185.55 -67.85c-1.35,10.1 -5.13,13.57 -14.28,14.52 -5,0 -9.93,-0.6 -14.9,-0.6l0 -39.7c3.87,0 10.06,-2.9 14.27,-3.55 12.73,0 14.37,9.83 15.22,21.03l0 5.34 -0.31 2.96zm-117.99 18.96c0.73,-3.44 1.65,-4.63 5.39,-5.33 6.51,-0.87 13.12,-1.1 19.66,-1.78l0 13.63 -0.95 0c-5.65,1.32 -11.32,2.21 -17.13,2.67l-3.17 0c-2.7,-0.64 -3.29,-2.64 -3.8,-5.04l0 -4.15zm-103.46 10.44c-5.93,1.85 -13.5,2.67 -19.66,2.67 -3.05,-0.57 -3.85,-1.95 -4.44,-4.74 -0.34,-1.87 -0.34,-3.18 0,-5.04 1.06,-3.97 3.08,-4.38 7.29,-5.04 5.61,-0.37 11.2,-0.83 16.81,-1.18l0.95 -0.3 0 2.08 0 4.44 0 7.11 -0.95 0zm284.08 9.78c1.07,-4.02 3.07,-4.55 7.31,-5.34 5.9,-0.42 12.35,-0.4 18.11,-1.48l0 13.63c-4.56,0 -9.88,1.88 -14.62,2.37l-4.13 0.3c-1.94,0 -3.15,0.12 -4.77,-0.89 -2.16,-2.02 -1.9,-6.13 -1.9,-8.59z"/>
  </g>
 </g>
</svg>
